<svg xmlns:mydata="http://www.w3.org/2000/svg" mydata:contrastcolor="B04A5A" mydata:template="contrast" mydata:presentation="2.5" mydata:layouttype="" mydata:specialfontid="" mydata:id1="039" mydata:id2="235" mydata:companyname="VentureCo" mydata:companytagline="Work, Explore, Enjoy, Repeat." version="1.1" xmlns="http://www.w3.org/2000/svg" xmlns:xlink="http://www.w3.org/1999/xlink" viewBox="0 0 550 470"><g fill="none" fill-rule="nonzero" stroke="none" stroke-width="1" stroke-linecap="butt" stroke-linejoin="miter" stroke-miterlimit="10" stroke-dasharray="" stroke-dashoffset="0" font-family="none" font-weight="none" font-size="none" text-anchor="none" style="mix-blend-mode: normal"><g><g><path d="M110,176.02739h298.57815l31.42185,42.00882l-31.42185,42.00882h-298.57815z" fill="#000000"></path><path d="M167.40444,204.04909l-12.26563,27.97425h-5.57529l-11.73745,-27.97425h6.16216l8.66615,21.42084l8.64659,-21.42084zM189.4904,204.04909v4.46023h-14.00669v7.04247h13.34156v4.63629h-13.40025v7.3359h14.33925v4.49935h-19.42547v-27.97425zM194.55706,232.02334v-27.97425h5.18404l14.76962,20.38403v-20.38403h4.98841v27.97425h-5.18404l-14.76962,-20.8144v20.8144zM243.65871,204.04909v4.49935h-8.02059v23.47489h-5.18404v-23.47489h-8.02059v-4.49935zM246.59307,221.02926v-16.98017h5.18404v16.98017c0,4.46023 2.28228,6.69034 6.84684,6.69034c4.56456,0 6.84684,-2.23011 6.84684,-6.69034v-16.98017h5.18404v16.98017c0,7.4598 -4.01029,11.1897 -12.03088,11.1897c-8.02059,0 -12.03088,-3.7299 -12.03088,-11.1897zM276.52356,231.98421v-27.93512h12.71557c5.71222,0 8.56834,2.49747 8.56834,7.4924c0,3.37778 -2.22359,6.1752 -6.67078,8.39227l8.86177,12.08957h-6.53385l-8.50965,-12.18738v-2.36705c4.95581,-0.8477 7.43372,-2.77134 7.43372,-5.77091c0,-2.06057 -1.1607,-3.09086 -3.48211,-3.09086h-7.10115v23.37708zM321.59535,204.04909v4.46023h-14.00669v7.04247h13.34156v4.63629h-13.40025v7.3359h14.33925v4.49935h-19.42547v-27.97425zM348.96317,230.84959c-2.4127,0.91291 -5.15143,1.36937 -8.21621,1.36937c-10.04204,0 -15.06306,-4.858 -15.06306,-14.574c0,-9.19433 5.02102,-13.7915 15.06306,-13.7915c3.06478,0 5.80352,0.45646 8.21621,1.36937v4.69498c-2.4127,-1.04333 -5.02102,-1.56499 -7.82496,-1.56499c-6.71643,0 -10.07464,3.09738 -10.07464,9.29215c0,6.71643 3.35821,10.07464 10.07464,10.07464c2.80395,0 5.41227,-0.52166 7.82496,-1.56499zM358.25531,217.95796c0,6.50776 2.88872,9.76164 8.66615,9.76164c5.63397,0 8.45096,-3.25388 8.45096,-9.76164c0,-6.40343 -2.81699,-9.60514 -8.45096,-9.60514c-5.77743,0 -8.66615,3.20171 -8.66615,9.60514M352.87565,218.07534c0,-9.48125 4.68194,-14.22187 14.04581,-14.22187c9.22042,0 13.83062,4.74062 13.83062,14.22187c0,9.42908 -4.61021,14.14362 -13.83062,14.14362c-8.94654,0 -13.62848,-4.71454 -14.04581,-14.14362z" fill="#ffffff"></path></g><path d="M150.68183,275.20098l-1.52577,11.53576l-1.59513,-11.53576h-2.40425l-1.59513,11.55888l-1.52577,-11.55888h-2.40425l2.70478,16.18243h2.40425l1.61824,-11.55888l1.61824,11.55888h2.40425l2.70478,-16.18243zM158.70369,275.06228c-2.84348,0 -4.11496,2.0806 -4.11496,4.48485v7.49016c0,2.40425 1.27148,4.48485 4.11496,4.48485c2.84348,0 4.11496,-2.0806 4.11496,-4.48485v-7.49016c0,-2.40425 -1.27148,-4.48485 -4.11496,-4.48485zM156.99298,279.54712c0,-1.22524 0.36988,-2.21931 1.71071,-2.21931c1.34083,0 1.71071,0.99406 1.71071,2.21931v7.49016c0,1.22524 -0.36988,2.21931 -1.71071,2.21931c-1.34083,0 -1.71071,-0.99406 -1.71071,-2.21931zM168.94486,275.20098h-4.04561v16.18243h2.40425v-6.40362h1.52577c0.94783,0.02312 1.20212,0.20806 1.20212,1.36395v0.53171c0,2.68166 0.06935,3.97626 0.393,4.50796h2.40425c-0.32365,-0.50859 -0.393,-1.59513 -0.393,-4.50796v-0.76289c0,-1.45642 -0.60106,-1.84942 -1.06342,-2.31178c0.46236,-0.41612 1.06342,-0.85536 1.06342,-2.31178v-2.79725c0,-2.49672 -0.97095,-3.49078 -3.49078,-3.49078zM170.03139,279.10788v1.96501c0,1.31771 -0.32365,1.64136 -1.64136,1.64136h-1.08653v-5.24773h1.08653c1.31771,0 1.64136,0.32365 1.64136,1.64136zM182.51499,275.20098h-2.63542l-2.95907,5.77944v-5.77944h-2.40425v16.18243h2.40425v-5.64073l0.80912,-1.57201l2.49672,7.21274h2.51984l-3.42143,-9.96376zM184.01764,291.38342h1.01718l-0.53171,2.58919h1.36395l0.94783,-2.58919v-2.79725h-2.79725zM199.50654,277.46652v-2.26554h-6.68103v16.18243h6.68103v-2.26554h-4.27679v-5.31709h3.58325v-2.26554h-3.58325v-4.06873zM209.53965,275.20098h-2.51984l-1.52577,4.99344l-1.52577,-4.99344h-2.51984l2.77413,7.51327l-3.21337,8.66916h2.51984l1.96501,-6.14932l1.96501,6.14932h2.51984l-3.21337,-8.66916zM215.75833,275.20098h-4.04561v16.18243h2.40425v-6.17244h1.64136c2.51984,0 3.49078,-0.99406 3.49078,-3.49078v-3.02843c0,-2.49672 -0.97095,-3.49078 -3.49078,-3.49078zM216.84486,279.10788v2.19619c0,1.31771 -0.32365,1.64136 -1.64136,1.64136h-1.08653v-5.47891h1.08653c1.31771,0 1.64136,0.32365 1.64136,1.64136zM223.50278,289.11788v-13.91689h-2.40425v16.18243h6.68103v-2.26554zM233.166,275.06228c-2.84348,0 -4.11496,2.0806 -4.11496,4.48485v7.49016c0,2.40425 1.27148,4.48485 4.11496,4.48485c2.84348,0 4.11496,-2.0806 4.11496,-4.48485v-7.49016c0,-2.40425 -1.27148,-4.48485 -4.11496,-4.48485zM231.45529,279.54712c0,-1.22524 0.36988,-2.21931 1.71071,-2.21931c1.34083,0 1.71071,0.99406 1.71071,2.21931v7.49016c0,1.22524 -0.36988,2.21931 -1.71071,2.21931c-1.34083,0 -1.71071,-0.99406 -1.71071,-2.21931zM243.40717,275.20098h-4.04561v16.18243h2.40425v-6.40362h1.52577c0.94783,0.02312 1.20212,0.20806 1.20212,1.36395v0.53171c0,2.68166 0.06935,3.97626 0.393,4.50796h2.40425c-0.32365,-0.50859 -0.393,-1.59513 -0.393,-4.50796v-0.76289c0,-1.45642 -0.60106,-1.84942 -1.06342,-2.31178c0.46236,-0.41612 1.06342,-0.85536 1.06342,-2.31178v-2.79725c0,-2.49672 -0.97095,-3.49078 -3.49078,-3.49078zM244.49371,279.10788v1.96501c0,1.31771 -0.32365,1.64136 -1.64136,1.64136h-1.08653v-5.24773h1.08653c1.31771,0 1.64136,0.32365 1.64136,1.64136zM255.65959,277.46652v-2.26554h-6.68103v16.18243h6.68103v-2.26554h-4.27679v-5.31709h3.58325v-2.26554h-3.58325v-4.06873zM257.50901,291.38342h1.01718l-0.53171,2.58919h1.36395l0.94783,-2.58919v-2.79725h-2.79725zM272.99791,277.46652v-2.26554h-6.68103v16.18243h6.68103v-2.26554h-4.27679v-5.31709h3.58325v-2.26554h-3.58325v-4.06873zM281.45901,275.20098v11.16588l-3.97626,-11.16588h-2.40425v16.18243h2.40425v-10.03311l3.60637,10.03311h2.77413v-16.18243zM285.13474,287.03728c0,2.40425 1.27148,4.48485 4.11496,4.48485c2.84348,0 4.11496,-2.0806 4.11496,-4.48485v-11.83629h-2.40425v11.83629c0,1.22524 -0.36988,2.21931 -1.71071,2.21931c-1.34083,0 -1.71071,-0.99406 -1.71071,-2.21931zM299.44463,275.06228c-2.84348,0 -4.11496,2.0806 -4.11496,4.48485v7.49016c0,2.40425 1.27148,4.48485 4.11496,4.48485c2.84348,0 4.11496,-2.0806 4.11496,-4.48485v-7.49016c0,-2.40425 -1.27148,-4.48485 -4.11496,-4.48485zM297.73392,279.54712c0,-1.22524 0.36988,-2.21931 1.71071,-2.21931c1.34083,0 1.71071,0.99406 1.71071,2.21931v7.49016c0,1.22524 -0.36988,2.21931 -1.71071,2.21931c-1.34083,0 -1.71071,-0.99406 -1.71071,-2.21931zM312.99164,275.20098h-2.4736l-1.54889,6.31115l-1.54889,-6.31115h-2.4736l2.82037,9.57075v6.61168h2.40425v-6.61168zM313.91635,291.38342h1.01718l-0.53171,2.58919h1.36395l0.94783,-2.58919v-2.79725h-2.79725zM326.76983,275.20098h-4.04561v16.18243h2.40425v-6.40362h1.52577c0.94783,0.02312 1.20212,0.20806 1.20212,1.36395v0.53171c0,2.68166 0.06935,3.97626 0.393,4.50796h2.40425c-0.32365,-0.50859 -0.393,-1.59513 -0.393,-4.50796v-0.76289c0,-1.45642 -0.60106,-1.84942 -1.06342,-2.31178c0.46236,-0.41612 1.06342,-0.85536 1.06342,-2.31178v-2.79725c0,-2.49672 -0.97095,-3.49078 -3.49078,-3.49078zM327.85636,279.10788v1.96501c0,1.31771 -0.32365,1.64136 -1.64136,1.64136h-1.08653v-5.24773h1.08653c1.31771,0 1.64136,0.32365 1.64136,1.64136zM339.02224,277.46652v-2.26554h-6.68103v16.18243h6.68103v-2.26554h-4.27679v-5.31709h3.58325v-2.26554h-3.58325v-4.06873zM345.14845,275.20098h-4.04561v16.18243h2.40425v-6.17244h1.64136c2.51984,0 3.49078,-0.99406 3.49078,-3.49078v-3.02843c0,-2.49672 -0.97095,-3.49078 -3.49078,-3.49078zM346.23498,279.10788v2.19619c0,1.31771 -0.32365,1.64136 -1.64136,1.64136h-1.08653v-5.47891h1.08653c1.31771,0 1.64136,0.32365 1.64136,1.64136zM357.16969,277.46652v-2.26554h-6.68103v16.18243h6.68103v-2.26554h-4.27679v-5.31709h3.58325v-2.26554h-3.58325v-4.06873zM358.78793,291.38342h2.42737l0.48547,-2.7279h2.49672l0.48547,2.7279h2.42737l-2.93596,-16.18243h-2.45048zM363.78137,286.38998h-1.66448l0.83224,-6.56544zM375.57142,275.20098h-8.22992v2.26554h2.91284v13.91689h2.40425v-13.91689h2.91284zM376.14937,291.38342h2.79725v-2.79725h-2.79725z" fill="#000000"></path></g></g></svg>