<svg width="24" height="24" xmlns="http://www.w3.org/2000/svg">

 <g>
  <title>Octicon-Package</title>
  <path stroke="#ffffff" fill="none" id="svg_1" d="m13.00933,1.17333a1.75,1.75 0 0 0 -1.75,0l-8.25,4.762a1.75,1.75 0 0 0 -0.875,1.515l0,9.525c0,0.625 0.334,1.203 0.875,1.515l8.25,4.763a1.75,1.75 0 0 0 1.75,0l8.25,-4.762a1.75,1.75 0 0 0 0.875,-1.516l0,-9.525a1.75,1.75 0 0 0 -0.875,-1.515l-8.25,-4.763l0,0.001zm-1,1.298a0.25,0.25 0 0 1 0.25,0l7.625,4.402l-7.75,4.474l-7.75,-4.474l7.625,-4.402zm-8.375,5.702l0,8.803c0,0.09 0.048,0.172 0.125,0.216l7.625,4.402l0,-8.947l-7.75,-4.474zm9.25,13.421l7.625,-4.402a0.25,0.25 0 0 0 0.125,-0.216l0,-8.804l-7.75,4.474l0,8.947l0,0.001z" fill-rule="evenodd"/>
 </g>
</svg>