<?xml version="1.0" encoding="UTF-8" standalone="no"?>
<!-- Created with Inkscape (http://www.inkscape.org/) -->

<svg
   version="1.1"
   id="svg2"
   width="4096"
   height="2303.9995"
   viewBox="0 0 4095.9999 2303.9995"
   sodipodi:docname="bannerInvite3.svg"
   inkscape:version="1.1 (c68e22c387, 2021-05-23)"
   inkscape:export-filename="C:\Data\git ( Web Design - Web Proj )\misc-prog\Web Projects\AtlasFN\res\Blaze\bannerInvite.png"
   inkscape:export-xdpi="95.999374"
   inkscape:export-ydpi="95.999374"
   xmlns:inkscape="http://www.inkscape.org/namespaces/inkscape"
   xmlns:sodipodi="http://sodipodi.sourceforge.net/DTD/sodipodi-0.dtd"
   xmlns:xlink="http://www.w3.org/1999/xlink"
   xmlns="http://www.w3.org/2000/svg"
   xmlns:svg="http://www.w3.org/2000/svg">
  <defs
     id="defs6">
    <linearGradient
       inkscape:collect="always"
       id="linearGradient4673">
      <stop
         style="stop-color:#130229;stop-opacity:1"
         offset="0"
         id="stop4669" />
      <stop
         style="stop-color:#00451d;stop-opacity:1"
         offset="1"
         id="stop4671" />
    </linearGradient>
    <rect
       x="3029.1633"
       y="1750.1832"
       width="2692.5896"
       height="751.68115"
       id="rect7456" />
    <rect
       x="3029.1633"
       y="1750.1832"
       width="5362.7407"
       height="89.752884"
       id="rect7456-9" />
    <linearGradient
       inkscape:collect="always"
       xlink:href="#linearGradient4673"
       id="linearGradient3261"
       x1="3857.5996"
       y1="3493.4785"
       x2="6910.6172"
       y2="4993.144"
       gradientUnits="userSpaceOnUse" />
    <clipPath
       clipPathUnits="userSpaceOnUse"
       id="clipPath12276">
      <use
         x="0"
         y="0"
         xlink:href="#g12272"
         id="use12278" />
    </clipPath>
  </defs>
  <sodipodi:namedview
     id="namedview4"
     pagecolor="#ffffff"
     bordercolor="#666666"
     borderopacity="1.0"
     inkscape:pageshadow="2"
     inkscape:pageopacity="0.0"
     inkscape:pagecheckerboard="0"
     showgrid="false"
     fit-margin-top="0"
     fit-margin-left="0"
     fit-margin-right="0"
     fit-margin-bottom="0"
     inkscape:zoom="0.25"
     inkscape:cx="2022"
     inkscape:cy="1466"
     inkscape:window-width="1920"
     inkscape:window-height="1057"
     inkscape:window-x="-8"
     inkscape:window-y="-8"
     inkscape:window-maximized="1"
     inkscape:current-layer="layer1"
     showguides="false" />
  <g
     inkscape:groupmode="layer"
     id="layer2"
     inkscape:label="svg 1"
     transform="translate(-2814.6172,-2689.1445)"
     style="display:inline">
    <rect
       style="display:inline;fill:url(#linearGradient3261);fill-opacity:1;stroke:none;stroke-width:45.018;stroke-linecap:round"
       id="rect848"
       width="4096"
       height="2303.9995"
       x="2814.6172"
       y="2689.1445"
       ry="0"
       inkscape:export-filename="C:\Data\git ( Web Design - Web Proj )\misc-prog\Web Projects\AtlasFN\res\Blaze\bannerInvite.png"
       inkscape:export-xdpi="96"
       inkscape:export-ydpi="96" />
  </g>
  <g
     inkscape:groupmode="layer"
     id="layer4"
     inkscape:label="svg 3"
     style="display:inline">
    <g
       id="g12274"
       clip-path="url(#clipPath12276)"
       transform="matrix(1.1872089,0,0,1.1872089,-766.81311,-431.32949)">
      <g
         inkscape:label="Clip"
         id="g12272">
        <path
           style="display:inline;fill:#ffffff;fill-opacity:0.0726141;stroke:none;stroke-width:4.518;stroke-linecap:butt;stroke-linejoin:miter;stroke-miterlimit:4;stroke-dasharray:none;stroke-opacity:1"
           d="m 2991.713,2304.0001 c 0,0 -29.536,-145.4588 15.4008,-207.9582 33.9216,-62.7401 64.189,-135.0638 44.8075,-207.2763 0.5034,-81.7471 68.5376,-139.5918 117.365,-197.1107 54.087,-58.7153 72.5213,-138.5418 96.1165,-212.1245 38.7103,-73.1898 116.0521,-123.8857 198.3675,-131.3971 88.5582,-33.0659 124.4748,-135.8785 209.8531,-172.5859 65.8359,-19.4063 143.1967,15.5738 201.7468,-30.2744 69.7089,-28.1308 220.6571,-49.6054 220.6571,-49.6054 L 4096,2303.9995 Z"
           id="path1940"
           sodipodi:nodetypes="ccccccccccc" />
      </g>
    </g>
  </g>
  <g
     inkscape:groupmode="layer"
     id="layer1"
     inkscape:label="svg"
     style="display:inline"
     transform="translate(-2973.3076,-2887.6881)">
    <path
       style="fill:none;fill-opacity:1;stroke:#00ffe9;stroke-width:24.7007;stroke-linecap:round;stroke-linejoin:round;stroke-miterlimit:4;stroke-dasharray:none;stroke-opacity:0.36616698"
       d="m 6395.9106,4970.8859 c 0,0 -49.0829,-78.1494 -52.4189,-89.5862 -3.3342,-11.4357 -15.7248,-77.6699 -15.7248,-88.1541 0,-10.4839 -4.5854,-21.8115 -5.7187,-32.8812 -2.0627,-20.2336 -2.5069,-40.6568 -1.9044,-60.992 0.4673,-15.7822 0.2893,-31.9007 4.2877,-47.1744 7.278,-27.7878 22.58,-52.8531 35.2618,-78.6258 32.0068,-65.0379 71.9183,-126.0404 102.9279,-191.5608 8.3786,-17.7017 17.0121,-35.4882 22.3951,-54.319 10.8444,-37.9384 19.5363,-116.747 19.5363,-116.747 0,0 10.6005,62.8601 22.8729,91.9679 12.1929,28.9191 33.1327,53.3116 49.5595,80.0535 31.1512,50.7199 92.9173,152.4842 92.9173,152.4842 l 19.0641,58.6118 33.8295,-70.0469 c 0,0 10.0073,-33.3563 11.9138,-36.2172 1.907,-2.8585 10.0063,-61.9451 10.0063,-61.9451 l 5.7185,-2.8592 10.9592,41.4568 c 0,0 12.2048,36.715 19.0606,54.7992 14.3654,37.8943 31.6602,74.6341 46.2203,112.4568 3.8818,10.0819 7.5013,20.2625 10.9611,30.4972 4.3756,12.9446 9.2415,25.778 12.3913,39.0707 4.8873,20.6633 10.0054,60.5185 10.0054,62.9023 0,2.3843 -5.7175,104.8339 -5.7175,104.8339 0,0 -11.4389,39.5509 -16.2031,45.7458 -4.7649,6.1936 -45.7484,87.2016 -45.7484,87.2016 l -74.331,-176.31 -60.0409,110.5515 -6.6733,-75.7656 -2.3819,-25.7316 c 0,0 -7.411,-31.3296 -14.2949,-45.7454 -5.4289,-11.3697 -12.9785,-21.7067 -20.9674,-31.4517 -6.1214,-7.4692 -13.1677,-14.1877 -20.4887,-20.4898 -9.7279,-8.3712 -21.6099,-14.0951 -30.9735,-22.874 -4.8522,-4.5461 -9.5622,-9.4724 -12.8657,-15.2462 -4.5103,-7.893 -6.2709,-17.074 -9.0541,-25.7317 -2.431,-7.5613 -4.0082,-15.3906 -6.6696,-22.8723 -3.0099,-8.4501 -6.8233,-16.5927 -10.4853,-24.7781 -3.7988,-8.4985 -10.9599,-23.352 -11.912,-25.2574 -0.9531,-1.9048 -5.718,2.3838 -5.718,2.3838 0,0 -5.8288,20.3792 -10.9609,29.5441 -11.4906,20.5188 -31.3296,35.4099 -43.5785,55.488 -12.3528,20.2522 -22.2892,42.1433 -29.6503,64.6953 -6.9714,21.3604 -10.7831,56.6062 -13.4787,66.0409 -2.6933,9.434 -12.1262,59.303 -12.1262,67.3885 v 33.6995 c 0,5.3861 -2.6983,32.3417 -2.6983,32.3417 z"
       id="path1036"
       sodipodi:nodetypes="cccaaaaaacaacccccccaaaaccccccccaaaaaaaaccaaaccccc" />
  </g>
</svg>
