<?xml version="1.0" encoding="UTF-8" standalone="no"?>
<!-- Created with Inkscape (http://www.inkscape.org/) -->

<svg
   version="1.1"
   id="svg2"
   width="301.4585"
   height="317.82056"
   viewBox="0 0 301.45849 317.82056"
   sodipodi:docname="BLAZELOGO0001.svg"
   inkscape:version="1.1 (c68e22c387, 2021-05-23)"
   xmlns:inkscape="http://www.inkscape.org/namespaces/inkscape"
   xmlns:sodipodi="http://sodipodi.sourceforge.net/DTD/sodipodi-0.dtd"
   xmlns="http://www.w3.org/2000/svg"
   xmlns:svg="http://www.w3.org/2000/svg">
  <defs
     id="defs6" />
  <sodipodi:namedview
     id="namedview4"
     pagecolor="#ffffff"
     bordercolor="#666666"
     borderopacity="1.0"
     inkscape:pageshadow="2"
     inkscape:pageopacity="0.0"
     inkscape:pagecheckerboard="0"
     showgrid="false"
     fit-margin-top="0"
     fit-margin-left="0"
     fit-margin-right="0"
     fit-margin-bottom="0"
     inkscape:zoom="2.0168614"
     inkscape:cx="229.3167"
     inkscape:cy="122.2196"
     inkscape:window-width="1920"
     inkscape:window-height="1057"
     inkscape:window-x="-8"
     inkscape:window-y="-8"
     inkscape:window-maximized="1"
     inkscape:current-layer="layer2" />
  <g
     inkscape:groupmode="layer"
     id="layer2"
     inkscape:label="svg 1"
     transform="translate(52.804819,16.114147)">
    <rect
       style="fill:#d12a2e;fill-opacity:1;stroke-width:0;stroke-miterlimit:4;stroke-dasharray:none"
       id="rect7848"
       width="301.95428"
       height="318.31641"
       x="-53.052731"
       y="-16.362057"
       ry="5.6293902"
       rx="0" />
    <path
       style="fill:#d13c3f;fill-opacity:1;stroke-width:0;stroke-miterlimit:4;stroke-dasharray:none"
       d="M -52.804819,142.79613 V -16.114147 H 97.924429 248.65368 V 142.79613 301.70641 H 97.924429 -52.804819 Z M 180.47844,279.52526 c 3.27241,-6.46385 7.34215,-14.25687 9.04385,-17.31782 1.98152,-3.56427 3.91417,-8.02666 5.37498,-12.41054 l 2.28096,-6.84515 1.10782,-19.8328 1.10782,-19.83279 -1.12863,-7.85106 c -1.65434,-11.50807 -2.44988,-15.0326 -5.50229,-24.37724 -3.75721,-11.50232 -6.33448,-18.20211 -14.42829,-37.50735 -9.21835,-21.9875 -13.62874,-34.182724 -17.17489,-47.490595 -1.12119,-4.207527 -2.26235,-7.724656 -2.53592,-7.815847 -1.58391,-0.527969 -2.15436,1.218944 -3.66531,11.224307 -2.15242,14.253165 -4.86859,22.477005 -12.78216,38.701065 l -5.9252,12.14759 -3.39514,-10.41222 -3.39514,-10.41222 -17.66742,-29.005459 C 102.0764,74.534126 91.123768,57.019288 87.4543,51.565269 83.784831,46.11125 79.852796,39.75236 78.716451,37.434402 75.412119,30.694133 73.074397,22.718672 70.142515,8.1832223 69.290176,3.9575645 68.513241,0.4206417 68.415991,0.32339406 68.20142,0.10881858 68.125445,0.59895589 66.198883,14.626687 63.369486,35.228142 61.046238,44.643227 56.039662,55.797424 51.769458,65.311062 42.193728,83.638777 32.734203,100.40353 17.872284,126.74272 5.7741103,150.44223 3.2667887,158.12822 c -2.64232338,8.09982 -2.75996656,9.241 -2.73852731,26.56469 0.0183949,14.8651 0.10739459,16.51769 1.14819001,21.32026 0.6205433,2.86336 1.3307012,7.14516 1.5781352,9.51512 0.5468249,5.23753 3.0340112,19.50781 4.6801233,26.85227 0.9944362,4.43689 1.7439572,6.3468 4.2807401,10.90804 4.000434,7.19294 15.929087,26.63629 16.184742,26.38063 0.108773,-0.10877 -0.04492,-1.76205 -0.341581,-3.67394 -0.371845,-2.39661 -0.388227,-4.9108 -0.05275,-8.09556 0.267629,-2.54065 0.490465,-8.20987 0.49519,-12.59825 0.009,-8.34443 0.993152,-15.77538 3.73696,-28.21597 0.661598,-2.99971 1.86934,-9.24704 2.683878,-13.88296 1.759358,-10.01333 3.143707,-14.98571 6.201621,-22.27529 4.400253,-10.48952 8.128001,-16.68907 14.129132,-23.49791 8.507104,-9.6521 9.696655,-11.47333 12.203159,-18.68338 1.418531,-4.08045 2.014229,-5.20611 2.755073,-5.20611 1.200028,0 7.959149,15.94957 10.625737,25.07365 1.254856,4.29365 2.745608,8.79387 3.312781,10.00049 1.584363,3.37058 5.513656,7.30852 11.269496,11.2943 6.281282,4.34963 11.281812,9.1076 15.377822,14.63189 3.95741,5.33736 6.48999,10.69636 8.66889,18.34361 1.63136,5.72554 1.8995,7.67222 3.43391,24.93017 0.9154,10.29582 1.76894,18.82424 1.89675,18.95205 0.12781,0.12781 5.14662,-8.81242 11.1529,-19.86718 l 10.92053,-20.09957 3.95016,9.31579 c 2.17259,5.12368 8.28428,19.63231 13.58155,32.2414 5.29726,12.60909 9.74294,22.92463 9.87929,22.92343 0.13635,-9.9e-4 2.92534,-5.29079 6.19775,-11.75463 z"
       id="path7967" />
  </g>
  <g
     inkscape:groupmode="layer"
     id="layer1"
     inkscape:label="svg"
     style="display:inline"
     transform="translate(-185.12584,-233.81862)">
    <path
       style="fill:#ff2b05;fill-opacity:1;stroke:#000000;stroke-width:0;stroke-linecap:butt;stroke-linejoin:miter;stroke-miterlimit:4;stroke-dasharray:none;stroke-opacity:1"
       d="m 266.32872,529.63784 c 0,0 -18.05578,-28.749 -19.28287,-32.95617 -1.22709,-4.20717 -5.78486,-28.57371 -5.78486,-32.43028 0,-3.85658 -1.68805,-8.02438 -2.10359,-12.09562 -0.75983,-7.44439 -0.92348,-14.95848 -0.70119,-22.43825 0.17255,-5.80615 0.10614,-11.73535 1.57769,-17.35458 2.67691,-10.22197 8.30643,-19.44348 12.97211,-28.9243 11.77436,-23.9259 26.45694,-46.36719 37.86454,-70.47012 3.08237,-6.51268 6.2587,-13.05627 8.23904,-19.98406 3.98943,-13.95614 7.18726,-42.94821 7.18726,-42.94821 0,0 3.89922,23.12455 8.41434,33.83267 4.48574,10.63845 12.18856,19.61219 18.23107,29.4502 11.46001,18.65841 34.18327,56.09562 34.18327,56.09562 l 7.01195,21.56175 12.44622,-25.76893 c 0,0 3.68127,-12.27091 4.38247,-13.32271 0.70119,-1.05179 3.68127,-22.78884 3.68127,-22.78884 l 2.10359,-1.05179 4.03187,15.25099 c 0,0 4.48998,13.50668 7.01195,20.15937 5.28506,13.94142 11.64744,27.4564 17.00399,41.37051 1.42769,3.70855 2.75912,7.45459 4.03187,11.21913 1.60991,4.76181 3.40004,9.48305 4.55777,14.3745 1.79884,7.60017 3.68127,22.26295 3.68127,23.13944 0,0.8765 -2.10358,38.56574 -2.10358,38.56574 0,0 -4.20717,14.5498 -5.96016,16.82868 -1.75299,2.27889 -16.82869,32.07969 -16.82869,32.07969 l -27.34661,-64.86056 -22.08765,40.66932 -2.45418,-27.87251 -0.8765,-9.46614 c 0,0 -2.72677,-11.52508 -5.25896,-16.82868 -1.99704,-4.18274 -4.7746,-7.98526 -7.71315,-11.56972 -2.2528,-2.74798 -4.84481,-5.21965 -7.53785,-7.53785 -3.57834,-3.08028 -7.94944,-5.1856 -11.39442,-8.41434 -1.78507,-1.67302 -3.51832,-3.48592 -4.73307,-5.60956 -1.66087,-2.90354 -2.30688,-6.28167 -3.33067,-9.46614 -0.89422,-2.78144 -1.4743,-5.66192 -2.45419,-8.41434 -1.10653,-3.10817 -2.50977,-6.10369 -3.85657,-9.11554 -1.3978,-3.1259 -4.03187,-8.58964 -4.38247,-9.29084 -0.3506,-0.70119 -2.10359,0.8765 -2.10359,0.8765 0,0 -2.14385,7.49708 -4.03187,10.86852 -4.2274,7.54888 -11.52595,13.02694 -16.03167,20.41308 -4.54463,7.44992 -8.19989,15.50352 -10.90804,23.79935 -2.56497,7.85725 -3.96656,20.82444 -4.9582,24.29518 -0.99164,3.47074 -4.46238,21.81607 -4.46238,24.79099 v 12.3955 c 0,1.98328 -0.99164,11.89968 -0.99164,11.89968 z"
       id="path1036"
       sodipodi:nodetypes="cccaaaaaacaacccccccaaaaccccccccaaaaaaaaccaaaccccc" />
  </g>
</svg>
