<?xml version="1.0" encoding="UTF-8" standalone="no"?>
<!-- Created with Inkscape (http://www.inkscape.org/) -->

<svg
   version="1.1"
   id="svg37"
   width="399.92542"
   height="61.137333"
   viewBox="0 0 399.92541 61.137334"
   sodipodi:docname="Dynamite-Full-TextOnlyl.svg"
   inkscape:version="1.1 (c68e22c387, 2021-05-23)"
   xmlns:inkscape="http://www.inkscape.org/namespaces/inkscape"
   xmlns:sodipodi="http://sodipodi.sourceforge.net/DTD/sodipodi-0.dtd"
   xmlns="http://www.w3.org/2000/svg"
   xmlns:svg="http://www.w3.org/2000/svg">
  <defs
     id="defs41" />
  <sodipodi:namedview
     id="namedview39"
     pagecolor="#ffffff"
     bordercolor="#666666"
     borderopacity="1.0"
     inkscape:pageshadow="2"
     inkscape:pageopacity="0.0"
     inkscape:pagecheckerboard="0"
     showgrid="false"
     fit-margin-top="0"
     fit-margin-left="0"
     fit-margin-right="0"
     fit-margin-bottom="0"
     inkscape:zoom="1.8101934"
     inkscape:cx="191.41602"
     inkscape:cy="-15.744174"
     inkscape:window-width="1920"
     inkscape:window-height="1057"
     inkscape:window-x="-8"
     inkscape:window-y="-8"
     inkscape:window-maximized="1"
     inkscape:current-layer="g43" />
  <g
     inkscape:groupmode="layer"
     inkscape:label="Image"
     id="g43"
     transform="translate(-21.254756,88.825258)">
    <path
       style="fill:#ffffff;stroke:none;stroke-width:0.0976562"
       d="m 120.80078,195.00387 c -0.63722,-0.0382 -9.02517,-0.40584 -11.01074,-0.48257 l -1.53809,-0.0594 v -7.11539 -7.11539 l 12.23145,-0.0289 12.23144,-0.0289 0.95105,-0.26145 c 1.37267,-0.37734 2.22602,-0.85375 3.1056,-1.73379 1.10619,-1.10677 1.54463,-2.13484 1.75103,-4.10586 0.13085,-1.24961 0.13069,-18.2242 -2e-4,-19.38477 -0.20366,-1.80599 -0.65789,-2.92681 -1.58996,-3.92328 -1.32351,-1.41496 -3.01901,-2.08999 -5.97534,-2.379 -0.81095,-0.0793 -2.14187,-0.0929 -4.32129,-0.0443 l -3.14941,0.0703 v 12.59451 c 0,6.92931 -0.0376,12.57988 -0.0835,12.56197 -0.0459,-0.0179 -2.60571,-1.99962 -5.68847,-4.40381 -4.96185,-3.86967 -5.82324,-4.58226 -7.50693,-6.21012 l -1.90193,-1.83886 -0.0383,-13.32962 -0.0383,-13.32963 2.47734,-0.0629 c 1.36254,-0.0346 3.83965,-0.13016 5.50469,-0.21233 10.70559,-0.52833 16.44106,-0.29194 21.41604,0.88268 5.03529,1.18886 9.15918,3.48965 11.71942,6.53846 2.67472,3.18516 4.09995,7.21351 4.50887,12.74414 0.1393,1.88413 0.15406,4.38898 0.0817,13.86719 -0.0656,8.58613 -0.10246,9.27054 -0.62566,11.60329 -0.66121,2.94815 -1.92929,5.4247 -3.92941,7.67413 -3.9888,4.48601 -9.92022,6.85923 -18.68729,7.47698 -1.25873,0.0887 -8.57399,0.11574 -9.89381,0.0366 z"
       id="path593"
       transform="translate(-86.974134,-222.73864)" />
    <path
       style="fill:#ffffff;stroke-width:0.0976562"
       d="m 120.80078,195.00362 c -0.59019,-0.0357 -8.85513,-0.39717 -11.01074,-0.48155 l -1.53809,-0.0602 v -7.11539 -7.11539 l 12.23145,-0.0289 12.23144,-0.0289 0.95105,-0.26145 c 1.36293,-0.37466 2.22406,-0.85641 3.10333,-1.7361 1.11261,-1.11314 1.56212,-2.18205 1.75607,-4.17582 0.12408,-1.27556 0.1223,-18.07078 -0.002,-19.25131 -0.1921,-1.82381 -0.63287,-2.93169 -1.5758,-3.96072 -1.28939,-1.40715 -3.05872,-2.11671 -5.99042,-2.40238 -0.80981,-0.0789 -2.14492,-0.0924 -4.32129,-0.0435 l -3.14941,0.0707 v 12.58563 c 0,6.9221 -0.0248,12.58564 -0.0552,12.58564 -0.0303,0 -2.59016,-1.97748 -5.68847,-4.39438 -4.99175,-3.89393 -5.84996,-4.60392 -7.53576,-6.2343 l -1.90247,-1.83991 -0.0376,-13.32985 -0.0376,-13.32986 2.42832,-0.0633 c 1.33558,-0.0348 3.81564,-0.13028 5.51125,-0.21218 13.44081,-0.64923 19.81534,-0.11885 25.42535,2.11544 7.00074,2.78818 10.80403,7.65995 11.95666,15.3157 0.44815,2.97662 0.48555,4.57081 0.38948,16.6015 -0.0685,8.58392 -0.10573,9.26995 -0.62906,11.60329 -1.00044,4.46066 -3.54681,8.11903 -7.49836,10.7729 -3.75879,2.5244 -8.56583,3.91651 -15.11834,4.37821 -1.26066,0.0888 -8.58151,0.11571 -9.89381,0.0363 z"
       id="path669"
       transform="translate(-86.974134,-222.73864)" />
    <path
       style="fill:#ffffff;stroke-width:0.0976562"
       d="m 174.16634,186.93848 c -0.002,-4.14917 -0.0631,-9.4666 -0.13582,-11.81651 l -0.13224,-4.27256 -1.979,-3.53994 c -1.08845,-1.94697 -4.3751,-7.71474 -7.30367,-12.81728 -2.92858,-5.10254 -6.65467,-11.69434 -8.2802,-14.64844 l -2.95551,-5.37109 5.73193,-0.0319 c 4.62459,-0.0257 6.28505,10e-4 8.59511,0.14065 1.59668,0.0962 2.91982,0.21831 2.99121,0.27602 0.23111,0.18683 3.28149,6.02458 7.18676,13.75386 2.11078,4.17763 3.8713,7.56142 3.91227,7.51954 0.041,-0.0419 1.80024,-3.63573 3.90948,-7.98632 3.24156,-6.68613 4.08593,-8.34083 5.45668,-10.69336 l 1.62168,-2.7832 1.0196,-0.068 c 1.38212,-0.0922 16.3028,-0.21694 16.3028,-0.13635 0,0.15503 -6.4792,11.63903 -10.69391,18.95433 -2.53754,4.4043 -5.77043,10.05127 -7.1842,12.54883 l -2.57049,4.54101 -0.12045,3.32032 c -0.0676,1.86322 -0.12345,7.12374 -0.12727,11.9873 l -0.007,8.66699 h -7.61719 -7.61719 l -0.004,-7.54394 z"
       id="path708"
       transform="translate(-86.974134,-222.73864)" />
    <path
       style="fill:#ffffff;stroke-width:0.0976562"
       d="m 247.44829,194.44855 c -0.50356,-0.16718 -0.7341,-0.3274 -1.37747,-0.95729 -1.027,-1.00549 -1.91428,-2.49455 -3.57,-5.99126 -0.55952,-1.18164 -1.63158,-3.20312 -2.38237,-4.49219 -0.75079,-1.28906 -2.20011,-3.77197 -3.22073,-5.51757 -2.36275,-4.04113 -3.55723,-6.23187 -4.95669,-9.09083 -1.56457,-3.19628 -2.94074,-6.58883 -3.53195,-8.70703 -0.16015,-0.57378 -0.21361,-0.65918 -0.41269,-0.65918 -0.19772,0 -0.22126,0.0364 -0.17374,0.26856 0.0302,0.1477 0.38528,2.50025 0.78901,5.22787 l 0.73404,4.95931 v 12.49674 12.49674 h -7.4707 -7.4707 v -30.0208 -30.02081 l 6.37207,-0.0329 c 3.50464,-0.0181 6.61377,0.002 6.90918,0.0454 1.74305,0.25435 3.09807,2.08774 5.71618,7.73416 0.68898,1.4859 1.54595,3.01594 4.91021,8.76676 4.24478,7.25595 6.3575,11.363 8.07431,15.69613 0.65489,1.65292 1.5807,4.33835 1.78436,5.17578 0.0594,0.24433 0.14413,0.3507 0.29708,0.37301 0.11767,0.0172 0.21366,-0.005 0.21331,-0.0488 -3.9e-4,-0.044 -0.0866,-0.80513 -0.19154,-1.69136 -0.38658,-3.26314 -0.76567,-7.86342 -0.97776,-11.86524 -0.24685,-4.6577 -0.30945,-7.33189 -0.36286,-15.50293 l -0.0567,-8.66699 h 7.48419 7.48418 v 30.0293 30.02929 l -5.00488,2e-4 c -2.75269,1e-4 -5.94971,0.0226 -7.1045,0.05 -1.62535,0.0385 -2.1907,0.0195 -2.50288,-0.0841 z"
       id="path747"
       transform="translate(-86.974134,-222.73864)" />
    <path
       style="fill:#ffffff;stroke-width:0.0976562"
       d="m 266.35742,194.43295 c 0,-0.0272 3.73145,-10.73888 8.29211,-23.80371 4.56067,-13.06483 8.91148,-25.556 9.66847,-27.75815 1.22851,-3.57381 1.48866,-4.23206 2.42191,-6.12793 l 1.04556,-2.12402 1.07797,-0.003 c 0.59288,-0.002 2.87973,-0.0411 5.08187,-0.0874 l 4.00391,-0.0844 1.59524,0.25835 1.59523,0.25834 0.97334,2.39258 c 0.53534,1.31591 2.4396,6.50146 4.23169,11.52343 8.08468,22.65572 11.09039,31.12596 13.52762,38.1215 l 2.61517,7.50626 -7.63047,-0.0525 c -4.19676,-0.0289 -7.75386,-0.0835 -7.90466,-0.12125 -0.23597,-0.0591 -0.37384,-0.26775 -0.98925,-1.4967 -0.53759,-1.07356 -1.08457,-2.47017 -2.20388,-5.62719 -0.81885,-2.30957 -1.51735,-4.23107 -1.55223,-4.26999 -0.0349,-0.0389 -1.49055,-0.18598 -3.23483,-0.32679 l -3.17141,-0.25601 -4.49218,0.16545 c -2.47071,0.091 -4.49742,0.17214 -4.5038,0.18031 -0.006,0.008 -0.32812,0.73118 -0.71497,1.60671 -0.69248,1.56723 -0.76226,1.7855 -3.04236,9.51653 l -0.19441,0.65918 h -8.24782 c -4.5363,0 -8.24782,-0.0223 -8.24782,-0.0495 z m 32.22657,-25.51621 c 0,-0.0722 -3.48362,-16.11704 -3.72022,-17.13451 -0.10454,-0.44958 -0.1189,-0.46387 -0.46643,-0.46387 h -0.35857 l -2.03298,8.61816 c -1.11814,4.73999 -2.0558,8.71705 -2.08368,8.83789 l -0.0507,0.21973 h 4.35629 c 2.39596,0 4.35629,-0.0348 4.35629,-0.0774 z"
       id="path786"
       transform="translate(-86.974134,-222.73864)" />
    <path
       style="fill:#ffffff;stroke-width:0.0976562"
       d="m 326.80664,164.45313 v -30.0293 l 5.98145,-0.0244 c 3.28979,-0.0134 6.46484,-0.0244 7.05566,-0.0244 0.80542,0 1.18961,0.0445 1.53537,0.17794 1.06083,0.40932 1.87304,1.83287 3.18609,5.58413 0.43247,1.23555 1.03353,2.83955 1.33569,3.56446 0.30216,0.7249 1.33866,3.26748 2.30335,5.65017 0.96468,2.3827 2.21683,5.41492 2.78255,6.73828 1.05345,2.46428 3.43374,7.43541 3.56025,7.43541 0.0388,0 2.08072,-4.69046 4.53769,-10.42325 2.59454,-6.05377 5.23977,-12.05831 6.31011,-14.32362 1.01359,-2.14521 1.86714,-3.92462 1.89677,-3.95425 0.0296,-0.0296 1.0071,-0.1294 2.17215,-0.2217 1.6384,-0.1298 3.34054,-0.16905 7.51377,-0.17328 l 5.39551,-0.005 v 30.0293 30.02929 h -7.61719 -7.61719 l 7.9e-4,-0.85449 c 3.9e-4,-0.46997 0.19786,-6.83105 0.43879,-14.13574 0.24092,-7.30469 0.43833,-13.53394 0.4387,-13.84278 5.8e-4,-0.48708 -0.024,-0.56152 -0.18516,-0.56152 -0.13786,0 -0.24626,0.15754 -0.41998,0.61035 -0.12879,0.3357 -1.85792,4.9492 -3.8425,10.25224 l -3.60834,9.64189 -0.55664,0.002 c -0.30615,8.8e-4 -1.33887,0.0739 -2.29492,0.16224 -2.48105,0.22917 -5.42727,0.23222 -6.3881,0.007 -1.71674,-0.40311 -2.1735,-1.02718 -3.26727,-4.46406 -0.28204,-0.88623 -0.82072,-2.53418 -1.19707,-3.66211 -0.37635,-1.12793 -1.00078,-3.01758 -1.38763,-4.19922 -0.81931,-2.50261 -1.27681,-3.68997 -1.99543,-5.17888 -0.54078,-1.12043 -1.53132,-2.68724 -1.91216,-3.0246 l -0.22008,-0.19496 0.0663,0.3418 c 0.16873,0.87057 0.55366,3.81818 0.68864,5.27344 0.3678,3.96508 0.43704,7.79457 0.31298,17.30957 l -0.085,6.51855 h -7.45895 -7.45896 z"
       id="path825"
       transform="translate(-86.974134,-222.73864)" />
    <path
       style="fill:#ffffff;stroke-width:0.0976562"
       d="m 392.04102,164.45313 v -30.0293 h 7.4707 7.4707 v 30.0293 30.02929 h -7.4707 -7.4707 z"
       id="path864"
       transform="translate(-86.974134,-222.73864)" />
    <path
       style="fill:#ffffff;stroke-width:0.0976562"
       d="M 428.85742,171.63086 V 148.7793 h -7.86132 -7.86133 v -7.17774 -7.17773 h 23.48633 23.48632 v 7.17773 7.17774 h -7.86132 -7.86133 v 22.85156 22.85156 h -7.76367 -7.76368 z"
       id="path903"
       transform="translate(-86.974134,-222.73864)" />
    <path
       style="fill:#ffffff;stroke-width:0.0976562"
       d="m 466.25977,164.45313 v -30.0293 h 20.94726 20.94727 l -0.002,4.76074 c -0.001,3.8299 -0.0378,5.17734 -0.18567,6.8914 -0.1011,1.17186 -0.19915,2.14226 -0.21788,2.15643 -0.0187,0.0142 -1.63806,0.14456 -3.59851,0.28977 -3.52558,0.26113 -3.66801,0.26397 -13.06152,0.26057 l -9.49707,-0.003 v 4.6875 4.6875 h 12.1582 12.15821 v 6.49414 6.49414 H 493.75 481.5918 v 4.54101 4.54102 h 13.28125 13.28125 v 7.12891 7.1289 h -20.94727 -20.94726 z"
       id="path942"
       transform="translate(-86.974134,-222.73864)" />
  </g>
</svg>
