<?xml version="1.0" encoding="UTF-8" standalone="no"?>
<!-- Created with Inkscape (http://www.inkscape.org/) -->

<svg
   version="1.1"
   id="svg37"
   width="614.40002"
   height="345.60001"
   viewBox="0 0 614.40002 345.60001"
   sodipodi:docname="Dynamite-Full-Full.svg"
   inkscape:version="1.1 (c68e22c387, 2021-05-23)"
   xmlns:inkscape="http://www.inkscape.org/namespaces/inkscape"
   xmlns:sodipodi="http://sodipodi.sourceforge.net/DTD/sodipodi-0.dtd"
   xmlns="http://www.w3.org/2000/svg"
   xmlns:svg="http://www.w3.org/2000/svg">
  <defs
     id="defs41" />
  <sodipodi:namedview
     id="namedview39"
     pagecolor="#ffffff"
     bordercolor="#666666"
     borderopacity="1.0"
     inkscape:pageshadow="2"
     inkscape:pageopacity="0.0"
     inkscape:pagecheckerboard="0"
     showgrid="false"
     fit-margin-top="0"
     fit-margin-left="0"
     fit-margin-right="0"
     fit-margin-bottom="0"
     inkscape:zoom="1.28"
     inkscape:cx="343.35938"
     inkscape:cy="205.07813"
     inkscape:window-width="1284"
     inkscape:window-height="1003"
     inkscape:window-x="654"
     inkscape:window-y="109"
     inkscape:window-maximized="0"
     inkscape:current-layer="g43" />
  <g
     inkscape:groupmode="layer"
     inkscape:label="Image"
     id="g43"
     transform="translate(86.974134,222.73864)">
    <path
       style="fill:#eba301;stroke:none;stroke-width:0.32"
       d="M -86.974134,-222.73864 V 122.86137 H 527.42589 V -222.73864 H -86.974134 m 108.16,194.560015 v -14.4 h 19.52 c 3.01376,0 6.43904,0.42208 8.86368,-1.76928 1.85504,-1.6768 2.01536,-3.89152 2.01632,-6.23073 v -14.4 c 0,-2.65216 0.16,-5.31392 -1.9536,-7.29152 -3.1104,-2.9104 -9.18144,-1.98848 -13.0864,-1.98848 v 25.28001 l -11.2,-8.72001 -3.96704,-3.77248 -0.19296,-8.30752 v -18.56 c 11.69248,0 27.53088,-2.7984 37.76,4.07968 9.87713,6.64128 8.00001,18.87328 8.00001,29.20032 0,4.69184 0.44672,9.56321 -1.07393,14.08001 -1.16672,3.46624 -3.63168,6.52416 -6.60608,8.62624 -10.07712,7.12096 -26.42496,4.17376 -38.08,4.17376 m 73.60001,-38.40001 7.759044,-16 3.24576,-5.56704 5.3152,-0.19296 h 12.16 l -6.07648,10.88 -9.2192,16 -5.24256,9.28 -0.26176,7.68001 v 16.32 H 87.105876 v -16 l -0.22368,-7.68001 -4.30432,-7.68 -10.64672,-18.56 -5.62529,-10.24 h 12.48001 l 4.9952,0.32896 3.40736,6.39104 7.59744,15.04 m 66.560004,16 h 0.32 c -1.60064,-12.65376 -1.6,-24.9904 -1.6,-37.76 h 15.04 v 60.16001 h -10.88 c -1.2592,0 -3.24512,0.36704 -4.35872,-0.32896 -2.43936,-1.52448 -4.2416,-6.792 -5.6512,-9.27104 -4.6944,-8.25696 -10.39456,-16.70081 -13.03008,-25.92001 h -0.32 l 1.57152,10.56 0.0285,24.96001 h -15.04 v -60.16001 h 9.92 c 1.27616,0 3.23904,-0.35968 4.37472,0.32896 2.52384,1.52992 4.368,7.05088 5.81728,9.59104 5.02528,8.80928 11.10656,17.9632 13.808,27.84 m 74.24,22.40001 h -11.2 l -4.66592,-0.19296 -1.52064,-3.00704 -2.99808,-8.44704 -6.49536,-0.51296 -8.82592,0.32896 -1.4224,3.19104 -2.55168,8.64 h -16.64 l 15.86432,-45.44001 3.65568,-10.56 1.992,-3.96704 10.168,-0.19296 3.25824,0.51296 1.99744,4.92704 4.4544,12.48 10.03136,28.16001 4.89856,14.08 m 32,-31.04001 8.912,-20.8 3.776,-7.99104 4.272,-0.32896 h 10.88 v 60.16001 h -15.36 l 0.96,-29.44001 h -0.32 l -7.68,20.48001 c -2.4416,0 -8.6848,1.13408 -10.656,-0.32896 -1.3216,-0.9792 -1.8304,-3.95104 -2.4032,-5.43104 -1.6768,-4.32768 -3.0464,-11.28193 -6.1408,-14.72001 1.7728,9.55297 0.96,19.75809 0.96,29.44001 h -15.04 v -60.16001 h 10.56 c 1.248,0 3.2,-0.36544 4.3456,0.19296 1.8304,0.89216 3.0144,5.98944 3.7888,7.80704 2.9824,6.98624 5.5744,14.42016 9.1456,21.12 m 52.48,-29.12 v 60.16001 h -15.04 v -60.16001 h 15.04 m 53.12,0 v 14.4 h -15.68 v 45.76001 h -15.68 v -45.76001 h -15.68 v -14.4 h 47.04 m 48.00001,0 v 9.92 l -0.3296,3.96704 -6.7104,0.51296 h -19.52 v 9.28 h 24.32 v 13.12 h -24.32 v 8.96001 h 26.56 v 14.4 h -41.92 v -60.16001 h 41.92 m -214.08001,16.96 -4.16,17.6 h 8.64 l -3.84,-17.6 z"
       id="path451" />
  </g>
</svg>
