<?xml version="1.0" encoding="UTF-8" standalone="no"?>
<svg
   version="1.1"
   width="168.46604"
   height="213.71236"
   viewBox="0,0,168.46604,213.71236"
   id="svg75"
   sodipodi:docname="tbico-fixed.svg"
   inkscape:version="1.1 (c68e22c387, 2021-05-23)"
   xmlns:inkscape="http://www.inkscape.org/namespaces/inkscape"
   xmlns:sodipodi="http://sodipodi.sourceforge.net/DTD/sodipodi-0.dtd"
   xmlns="http://www.w3.org/2000/svg"
   xmlns:svg="http://www.w3.org/2000/svg">
  <defs
     id="defs79" />
  <sodipodi:namedview
     id="namedview77"
     pagecolor="#ffffff"
     bordercolor="#666666"
     borderopacity="1.0"
     inkscape:pageshadow="2"
     inkscape:pageopacity="0.0"
     inkscape:pagecheckerboard="0"
     showgrid="false"
     inkscape:zoom="3.7761036"
     inkscape:cx="84.346203"
     inkscape:cy="144.19626"
     inkscape:window-width="1920"
     inkscape:window-height="1057"
     inkscape:window-x="-8"
     inkscape:window-y="-8"
     inkscape:window-maximized="1"
     inkscape:current-layer="svg75" />
  <g
     transform="translate(-155.76698,-73.14382)"
     id="g73">
    <g
       data-paper-data="{&quot;isPaintingLayer&quot;:true}"
       fill-rule="nonzero"
       stroke-linecap="butt"
       stroke-linejoin="miter"
       stroke-miterlimit="10"
       stroke-dasharray=""
       stroke-dashoffset="0"
       style="mix-blend-mode: normal"
       id="g71">
      <path
         d=""
         fill="#000000"
         stroke="none"
         stroke-width="1"
         id="path45" />
      <path
         d=""
         fill="#000000"
         stroke="none"
         stroke-width="1"
         id="path47" />
      <path
         d=""
         fill="#000000"
         stroke="none"
         stroke-width="1"
         id="path49" />
      <path
         d=""
         fill="#000000"
         stroke="#000000"
         stroke-width="1"
         id="path51" />
      <g
         stroke="none"
         id="g69">
        <path
           d="M283.26848,273.16607c-0.04329,0.01256 -0.08669,0.02475 -0.13021,0.0366c0.13371,-0.05503 0.26579,-0.11068 0.39425,-0.16508c-0.0885,0.05743 -0.17662,0.10312 -0.26404,0.12847z"
           fill="#000000"
           stroke-width="1"
           id="path53" />
        <path
           d="M284.79739,271.83299c0,0 0.00695,-0.00579 0.0171,-0.01649c0.03666,0.03661 0.06345,0.08203 0.07879,0.13732c-0.0386,-0.0512 -0.09427,-0.07502 -0.1377,-0.0861c0.01397,-0.01157 0.0279,-0.02314 0.04181,-0.03473z"
           fill="#ffffff"
           stroke-width="0.5"
           id="path55" />
        <path
           d="M283.53252,273.03759c-0.00344,0.00223 -0.00689,0.00444 -0.01033,0.00664c-0.10163,0.04285 -0.20605,0.0859 -0.31217,0.12878c0.10921,-0.0453 0.21708,-0.09078 0.3225,-0.13542z"
           fill="#ffffff"
           stroke-width="0.5"
           id="path57" />
        <path
           d="M281.18446,272.75329l0.14193,-0.04685c0.17301,-0.06921 0.34604,-0.13841 0.51905,-0.20761c0.13718,-0.05481 0.89121,-0.41136 1.61671,-0.63237l-0.11304,0.09043c-0.65945,0.39473 -1.55252,0.67234 -2.33823,1.00288c0.0117,-0.15251 0.17358,-0.20648 0.17358,-0.20648z"
           fill="#ffffff"
           stroke-width="0.5"
           id="path59" />
        <path
           d="M283.98146,271.84641c-0.01789,-0.03817 -0.04513,-0.07108 -0.07879,-0.09576c0.08951,-0.01909 0.17626,-0.03432 0.25883,-0.04474c-0.05954,0.04722 -0.11955,0.09409 -0.18004,0.14051z"
           fill="#ffffff"
           stroke-width="0.5"
           id="path61" />
        <path
           d="m 156.12624,205.93849 c 1.50413,-7.9147 2.24281,-17.72471 8.08361,-24.1766 8.55209,-2.8339 17.84483,-1.46674 26.70902,-2.54561 8.38222,-6.68112 3.31227,-20.44829 5.47902,-30.10441 -0.57844,-11.17934 7.16504,-20.04609 14.44353,-27.633 5.92003,-5.85254 13.92493,-9.80987 17.96701,-17.43551 5.26502,-6.266682 10.52804,-12.719218 16.25531,-18.780582 3.47805,-4.385127 11.66069,-12.301784 15.65568,-10.779117 -0.7176,12.640739 1.58107,25.141796 2.99208,37.611469 0.69468,10.63805 -0.64792,21.57316 2.23839,31.923 4.78428,9.09742 10.66062,4.73727 7.94754,-3.6905 4.54544,-5.72509 0.25262,-20.16708 9.15251,-13.73944 8.16511,6.67481 7.93557,20.11171 16.71719,27.09809 6.28667,8.78374 10.38828,18.98175 14.89248,28.70068 3.86652,5.81132 5.49357,13.80818 7.89164,20.86103 2.89872,10.60418 0.90849,21.61799 0.66786,32.43037 -1.60755,9.14825 -7.77319,16.48151 -14.50591,22.52779 -6.39875,6.30462 -13.15412,11.96469 -20.61963,16.80642 -11.69724,6.60745 -24.90377,10.55031 -38.36259,10.72979 -10.59915,2.02479 -21.57039,0.5628 -32.16287,-1.37561 -8.74584,-3.72439 -17.99082,-6.22863 -25.90501,-11.8729 -6.95933,-5.11024 -14.75026,-8.90312 -20.47968,-15.68258 -7.0166,-7.6344 -12.0064,-16.66882 -13.35912,-27.03745 -1.22287,-7.81695 -1.59945,-17.18732 -1.69806,-23.83533 z"
           fill="#ff885d"
           stroke-width="0.5"
           id="path63"
           sodipodi:nodetypes="cccccccccccccccccccccccc" />
        <path
           d="m 167.86475,203.56556 c 1.22819,-6.46693 1.83399,-14.48441 6.60559,-19.75591 7.28025,-2.58215 15.33439,-0.79333 22.78676,-2.40116 5.22323,-7.04623 2.02688,-17.22963 3.65988,-25.59097 -0.26342,-9.38157 7.13555,-16.33251 13.05466,-22.68667 8.06205,-4.67538 12.6418,-12.74021 18.81157,-19.11873 5.68067,-7.26383 11.67611,-14.846822 20.21588,-18.9582 0.43258,9.07685 0.58134,18.6407 2.47207,27.7217 1.15137,10.03205 -0.50733,20.38154 2.13584,30.19133 7.08942,10.01785 10.38769,-3.32135 9.76436,-9.63037 -1.35527,-7.41589 -1.35322,-7.48622 6.52607,-3.00895 3.38456,7.38833 6.22771,15.73485 12.18228,21.69902 5.28554,7.57467 8.10225,16.39198 12.52995,24.3979 2.68681,6.57025 5.957,14.72418 6.45841,22.39905 -0.32693,7.7553 0.53561,15.94874 -1.92144,23.40088 -3.62954,9.55377 -12.62985,15.32427 -19.55571,22.36864 -5.96838,4.26208 -12.24032,8.19271 -19.26437,10.75505 -9.44596,3.02721 -19.42552,3.6411 -29.15162,4.32082 -8.31508,-0.58715 -17.06282,-0.924 -24.45206,-5.02613 -8.70619,-2.11655 -15.35334,-8.48511 -22.97366,-12.63647 -6.65118,-5.59319 -13.09882,-12.10941 -16.35032,-20.29111 -1.2985,-9.50174 -5.04319,-19.89216 -3.53414,-28.14972 z"
           fill="#ff6932"
           stroke-width="0.5"
           id="path65"
           sodipodi:nodetypes="cccccccccccccccccccccc" />
        <path
           d="m 176.51034,218.58991 c 1.32311,-6.3627 1.59575,-18.60871 11.41697,-17.1253 9.37706,2.08488 17.32586,-1.92218 14.93089,-12.26862 0.5148,-7.83161 -0.23649,-16.7144 6.27799,-22.46978 4.7733,-6.9848 13.43721,-10.22989 17.10098,-18.11027 6.1394,-5.29549 10.00694,-13.42185 17.64445,-17.0987 4.97242,-2.91197 0.55612,10.29593 2.68443,13.30141 1.95747,9.72329 1.23717,19.67256 2.22929,29.49815 1.84479,11.06905 10.52374,4.18467 8.54603,-3.50246 -1.19146,-6.97309 -0.88407,-7.31203 6.13415,-2.86128 1.77473,7.33907 6.35141,13.39869 10.77506,19.25529 3.57796,6.68673 6.80571,13.65669 9.77819,20.23638 3.50478,8.11507 4.97916,16.89011 3.74228,25.66179 1.23914,10.76388 -7.4684,18.44987 -14.84974,24.733 -9.36306,9.01054 -22.40604,13.68922 -35.36396,13.94883 -8.39238,0.89919 -17.6583,0.57877 -25.37337,-3.18781 -13.18215,-4.66686 -31.4666,-18.04061 -33.6417,-30.60128 -1.8603,-6.30643 -1.65113,-13.61972 -2.03194,-19.40935 z"
           fill="#ff4400"
           stroke-width="0"
           id="path67"
           sodipodi:nodetypes="cccccccccccccccccc" />
      </g>
    </g>
  </g>
</svg>
